<svg xmlns="http://www.w3.org/2000/svg" width="400" height="400" viewBox="0 0 400 400">
  <rect width="400" height="400" fill="#f1f5f9"/>
  <rect x="20" y="20" width="360" height="360" rx="12" fill="white" stroke="#e2e8f0" stroke-width="1"/>
  <!-- Polo silhouette -->
  <g transform="translate(200,175)">
    <!-- Body -->
    <path d="M-65,-75 L-45,-75 L-25,-55 L-15,-65 L-5,-55 L0,-70 L5,-55 L15,-65 L25,-55 L45,-75 L65,-75 L80,-40 L62,-30 L52,-52 L52,75 L-52,75 L-52,-52 L-62,-30 L-80,-40 Z" fill="#003368" opacity="0.85"/>
    <!-- Collar -->
    <path d="M-22,-72 L-15,-55 L0,-65 L15,-55 L22,-72" fill="#002a56" opacity="0.6"/>
    <!-- Button placket -->
    <line x1="0" y1="-65" x2="0" y2="-25" stroke="#f1f5f9" stroke-width="2" opacity="0.6"/>
    <circle cx="0" cy="-50" r="2" fill="#f1f5f9" opacity="0.6"/>
    <circle cx="0" cy="-38" r="2" fill="#f1f5f9" opacity="0.6"/>
  </g>
  <text x="200" y="310" text-anchor="middle" font-family="system-ui, -apple-system, sans-serif" font-size="14" font-weight="500" fill="#94a3b8">POLO</text>
  <text x="200" y="332" text-anchor="middle" font-family="system-ui, -apple-system, sans-serif" font-size="11" fill="#cbd5e1">JABB Streetwear</text>
</svg>